<svg width="46" height="49" viewBox="0 0 46 49" fill="none" xmlns="http://www.w3.org/2000/svg">
<path d="M23 0C17.4648 0 13 4.46484 13 10V12H5.09375L5 12.875L1 47.875L0.875 49H45.125L45 47.875L41 12.875L40.9062 12H33V10C33 4.46484 28.5352 0 23 0ZM23 2C27.4648 2 31 5.53516 31 10V12H15V10C15 5.53516 18.5352 2 23 2ZM6.90625 14H13V16.2812C12.4023 16.6289 12 17.2617 12 18C12 19.1055 12.8945 20 14 20C15.1055 20 16 19.1055 16 18C16 17.2617 15.5977 16.6289 15 16.2812V14H31V16.2812C30.4023 16.6289 30 17.2617 30 18C30 19.1055 30.8945 20 32 20C33.1055 20 34 19.1055 34 18C34 17.2617 33.5977 16.6289 33 16.2812V14H39.0938L42.875 47H3.125L6.90625 14Z" fill="black"/>
</svg>
